<svg xmlns="http://www.w3.org/2000/svg" xmlns:xlink="http://www.w3.org/1999/xlink" version="1.1" width="256" height="256" viewBox="0 0 256 256" xml:space="preserve">
<g style="stroke: none; stroke-width: 0; stroke-dasharray: none; stroke-linecap: butt; stroke-linejoin: miter; stroke-miterlimit: 10; fill: none; fill-rule: nonzero; opacity: 1;" transform="translate(1.4065934065934016 1.4065934065934016) scale(2.81 2.81)">
	<path d="M 5.564 24.234 v 41.532 c 0 1.239 0.661 2.384 1.734 3.003 l 35.968 20.766 c 1.073 0.619 2.395 0.619 3.468 0 l 35.968 -20.766 c 1.073 -0.619 1.734 -1.764 1.734 -3.003 V 24.234 c 0 -1.239 -0.661 -2.384 -1.734 -3.003 L 46.734 0.465 c -1.073 -0.619 -2.395 -0.619 -3.468 0 L 7.298 21.231 C 6.225 21.85 5.564 22.995 5.564 24.234 z" style="stroke: none; stroke-width: 1; stroke-dasharray: none; stroke-linecap: butt; stroke-linejoin: miter; stroke-miterlimit: 10; fill: rgb(0,78,216); fill-rule: nonzero; opacity: 1;" transform=" matrix(1 0 0 1 0 0) " stroke-linecap="round"/>
	<path d="M 39.153 67.5 c -12.407 0 -22.5 -10.093 -22.5 -22.5 c 0 -12.407 10.093 -22.5 22.5 -22.5 c 5.354 0 10.544 1.918 14.614 5.399 l -5.961 6.97 c -2.411 -2.061 -5.485 -3.197 -8.653 -3.197 c -7.35 0 -13.329 5.979 -13.329 13.329 c 0 7.349 5.979 13.328 13.329 13.328 c 3.17 0 6.243 -1.135 8.653 -3.197 l 5.961 6.97 C 49.697 65.583 44.507 67.5 39.153 67.5 z" style="stroke: none; stroke-width: 1; stroke-dasharray: none; stroke-linecap: butt; stroke-linejoin: miter; stroke-miterlimit: 10; fill: rgb(255,255,255); fill-rule: nonzero; opacity: 1;" transform=" matrix(1 0 0 1 0 0) " stroke-linecap="round"/>
	<rect x="58.6" y="35.75" rx="0" ry="0" width="3" height="18.5" style="stroke: none; stroke-width: 1; stroke-dasharray: none; stroke-linecap: butt; stroke-linejoin: miter; stroke-miterlimit: 10; fill: rgb(255,255,255); fill-rule: nonzero; opacity: 1;" transform=" matrix(1 0 0 1 0 0) "/>
	<rect x="66.6" y="35.75" rx="0" ry="0" width="3" height="18.5" style="stroke: none; stroke-width: 1; stroke-dasharray: none; stroke-linecap: butt; stroke-linejoin: miter; stroke-miterlimit: 10; fill: rgb(255,255,255); fill-rule: nonzero; opacity: 1;" transform=" matrix(1 0 0 1 0 0) "/>
	<rect x="62.6" y="39.75" rx="0" ry="0" width="3" height="18.5" style="stroke: none; stroke-width: 1; stroke-dasharray: none; stroke-linecap: butt; stroke-linejoin: miter; stroke-miterlimit: 10; fill: rgb(255,255,255); fill-rule: nonzero; opacity: 1;" transform=" matrix(6.123234e-17 -1 1 6.123234e-17 15.0977 113.0977) "/>
	<rect x="62.6" y="31.75" rx="0" ry="0" width="3" height="18.5" style="stroke: none; stroke-width: 1; stroke-dasharray: none; stroke-linecap: butt; stroke-linejoin: miter; stroke-miterlimit: 10; fill: rgb(255,255,255); fill-rule: nonzero; opacity: 1;" transform=" matrix(6.123234e-17 -1 1 6.123234e-17 23.0977 105.0977) "/>
</g>
</svg>