<svg xmlns="http://www.w3.org/2000/svg" xmlns:xlink="http://www.w3.org/1999/xlink" version="1.1" width="256" height="256" viewBox="0 0 256 256" xml:space="preserve">
<g style="stroke: none; stroke-width: 0; stroke-dasharray: none; stroke-linecap: butt; stroke-linejoin: miter; stroke-miterlimit: 10; fill: none; fill-rule: nonzero; opacity: 1;" transform="translate(1.4065934065934016 1.4065934065934016) scale(2.81 2.81)">
	<path d="M 43.779 0.434 L 12.722 25.685 c -0.452 0.368 -0.714 0.92 -0.714 1.502 v 19.521 c 0 0.747 0.43 1.427 1.104 1.748 c 0.674 0.321 1.473 0.225 2.053 -0.246 L 45 23.951 l 29.836 24.258 c 0.579 0.471 1.378 0.567 2.053 0.246 c 0.674 -0.321 1.104 -1.001 1.104 -1.748 V 27.187 c 0 -0.582 -0.263 -1.134 -0.714 -1.502 L 46.221 0.434 C 45.51 -0.145 44.49 -0.145 43.779 0.434 z" style="stroke: none; stroke-width: 1; stroke-dasharray: none; stroke-linecap: butt; stroke-linejoin: miter; stroke-miterlimit: 10; fill: rgb(0,0,0); fill-rule: nonzero; opacity: 1;" transform=" matrix(1 0 0 1 0 0) " stroke-linecap="round"/>
	<path d="M 43.779 41.792 l -31.057 25.25 c -0.452 0.368 -0.714 0.919 -0.714 1.502 v 19.52 c 0 0.747 0.43 1.427 1.104 1.748 c 0.674 0.321 1.473 0.225 2.053 -0.246 L 45 65.308 l 29.836 24.258 c 0.579 0.471 1.378 0.567 2.053 0.246 c 0.674 -0.321 1.104 -1.001 1.104 -1.748 V 68.544 c 0 -0.583 -0.263 -1.134 -0.714 -1.502 l -31.057 -25.25 C 45.51 41.214 44.49 41.214 43.779 41.792 z" style="stroke: none; stroke-width: 1; stroke-dasharray: none; stroke-linecap: butt; stroke-linejoin: miter; stroke-miterlimit: 10; fill: rgb(0,0,0); fill-rule: nonzero; opacity: 1;" transform=" matrix(1 0 0 1 0 0) " stroke-linecap="round"/>
</g>
</svg>